<svg width="146" height="42" viewBox="0 0 146 42" fill="none" xmlns="http://www.w3.org/2000/svg">
<path d="M49.812 11.392C49.812 10.5613 49.9333 9.82867 50.176 9.194C50.428 8.55933 50.764 8.032 51.184 7.612C51.6133 7.18267 52.108 6.86067 52.668 6.646C53.2373 6.43133 53.8393 6.324 54.474 6.324C55.0993 6.324 55.6873 6.43133 56.238 6.646C56.798 6.86067 57.288 7.18267 57.708 7.612C58.128 8.032 58.4593 8.55933 58.702 9.194C58.954 9.82867 59.08 10.5613 59.08 11.392C59.08 12.2227 58.954 12.9553 58.702 13.59C58.4593 14.2247 58.128 14.7567 57.708 15.186C57.288 15.606 56.798 15.9233 56.238 16.138C55.6873 16.3527 55.0993 16.46 54.474 16.46C53.8393 16.46 53.2373 16.3527 52.668 16.138C52.108 15.9233 51.6133 15.606 51.184 15.186C50.764 14.7567 50.428 14.2247 50.176 13.59C49.9333 12.9553 49.812 12.2227 49.812 11.392ZM51.24 11.392C51.24 11.98 51.3147 12.5167 51.464 13.002C51.6133 13.478 51.8233 13.884 52.094 14.22C52.374 14.556 52.71 14.8173 53.102 15.004C53.5033 15.1813 53.9513 15.27 54.446 15.27C54.9407 15.27 55.384 15.1813 55.776 15.004C56.168 14.8173 56.4993 14.556 56.77 14.22C57.05 13.884 57.2647 13.478 57.414 13.002C57.5633 12.5167 57.638 11.98 57.638 11.392C57.638 10.804 57.5633 10.272 57.414 9.796C57.2647 9.31067 57.05 8.9 56.77 8.564C56.4993 8.228 56.168 7.97133 55.776 7.794C55.384 7.60733 54.9407 7.514 54.446 7.514C53.9513 7.514 53.5033 7.60733 53.102 7.794C52.71 7.97133 52.374 8.228 52.094 8.564C51.8233 8.9 51.6133 9.31067 51.464 9.796C51.3147 10.272 51.24 10.804 51.24 11.392ZM66.8685 16.25H65.5665V10.062H62.3185V16.25H61.0165V8.97H66.8685V16.25ZM71.6442 10.062C71.6442 10.37 71.6349 10.7013 71.6162 11.056C71.6069 11.4013 71.5836 11.7513 71.5462 12.106C71.5089 12.4513 71.4576 12.7967 71.3922 13.142C71.3269 13.478 71.2429 13.7953 71.1402 14.094C71.0376 14.3927 70.9069 14.6727 70.7482 14.934C70.5989 15.1953 70.4122 15.4287 70.1882 15.634C69.9642 15.83 69.7029 15.998 69.4042 16.138C69.1056 16.2687 68.7556 16.3527 68.3542 16.39L68.1722 15.298C68.6296 15.2047 68.9889 15.032 69.2502 14.78C69.5209 14.528 69.7356 14.22 69.8942 13.856C70.0342 13.5387 70.1369 13.1793 70.2022 12.778C70.2676 12.3767 70.3142 11.9613 70.3422 11.532C70.3702 11.0933 70.3842 10.6547 70.3842 10.216C70.3936 9.77733 70.3982 9.362 70.3982 8.97H75.2422V16.25H73.9402V10.062H71.6442ZM79.9414 15.312C80.2494 15.312 80.5201 15.3073 80.7534 15.298C80.9961 15.2793 81.1968 15.2513 81.3554 15.214V13.044C81.2621 12.9973 81.1081 12.96 80.8934 12.932C80.6881 12.8947 80.4361 12.876 80.1374 12.876C79.9414 12.876 79.7314 12.89 79.5074 12.918C79.2928 12.946 79.0921 13.0067 78.9054 13.1C78.7281 13.184 78.5788 13.3053 78.4574 13.464C78.3361 13.6133 78.2754 13.814 78.2754 14.066C78.2754 14.5327 78.4248 14.8593 78.7234 15.046C79.0221 15.2233 79.4281 15.312 79.9414 15.312ZM79.8294 8.788C80.3521 8.788 80.7908 8.858 81.1454 8.998C81.5094 9.12867 81.7988 9.32 82.0134 9.572C82.2374 9.81467 82.3961 10.1087 82.4894 10.454C82.5828 10.79 82.6294 11.1633 82.6294 11.574V16.124C82.5174 16.1427 82.3588 16.1707 82.1534 16.208C81.9574 16.236 81.7334 16.264 81.4814 16.292C81.2294 16.32 80.9541 16.3433 80.6554 16.362C80.3661 16.39 80.0768 16.404 79.7874 16.404C79.3768 16.404 78.9988 16.362 78.6534 16.278C78.3081 16.194 78.0094 16.0633 77.7574 15.886C77.5054 15.6993 77.3094 15.4567 77.1694 15.158C77.0294 14.8593 76.9594 14.5 76.9594 14.08C76.9594 13.6787 77.0388 13.3333 77.1974 13.044C77.3654 12.7547 77.5894 12.5213 77.8694 12.344C78.1494 12.1667 78.4761 12.036 78.8494 11.952C79.2228 11.868 79.6148 11.826 80.0254 11.826C80.1561 11.826 80.2914 11.8353 80.4314 11.854C80.5714 11.8633 80.7021 11.882 80.8234 11.91C80.9541 11.9287 81.0661 11.9473 81.1594 11.966C81.2528 11.9847 81.3181 11.9987 81.3554 12.008V11.644C81.3554 11.4293 81.3321 11.2193 81.2854 11.014C81.2388 10.7993 81.1548 10.6127 81.0334 10.454C80.9121 10.286 80.7441 10.1553 80.5294 10.062C80.3241 9.95933 80.0534 9.908 79.7174 9.908C79.2881 9.908 78.9101 9.94067 78.5834 10.006C78.2661 10.062 78.0281 10.1227 77.8694 10.188L77.7154 9.11C77.8834 9.03533 78.1634 8.96533 78.5554 8.9C78.9474 8.82533 79.3721 8.788 79.8294 8.788ZM89.9299 8.97V10.062H87.5639V16.25H86.2619V10.062H83.8959V8.97H89.9299ZM93.7363 15.312C94.0443 15.312 94.315 15.3073 94.5483 15.298C94.791 15.2793 94.9917 15.2513 95.1503 15.214V13.044C95.057 12.9973 94.903 12.96 94.6883 12.932C94.483 12.8947 94.231 12.876 93.9323 12.876C93.7363 12.876 93.5263 12.89 93.3023 12.918C93.0877 12.946 92.887 13.0067 92.7003 13.1C92.523 13.184 92.3737 13.3053 92.2523 13.464C92.131 13.6133 92.0703 13.814 92.0703 14.066C92.0703 14.5327 92.2197 14.8593 92.5183 15.046C92.817 15.2233 93.223 15.312 93.7363 15.312ZM93.6243 8.788C94.147 8.788 94.5857 8.858 94.9403 8.998C95.3043 9.12867 95.5937 9.32 95.8083 9.572C96.0323 9.81467 96.191 10.1087 96.2843 10.454C96.3777 10.79 96.4243 11.1633 96.4243 11.574V16.124C96.3123 16.1427 96.1537 16.1707 95.9483 16.208C95.7523 16.236 95.5283 16.264 95.2763 16.292C95.0243 16.32 94.749 16.3433 94.4503 16.362C94.161 16.39 93.8717 16.404 93.5823 16.404C93.1717 16.404 92.7937 16.362 92.4483 16.278C92.103 16.194 91.8043 16.0633 91.5523 15.886C91.3003 15.6993 91.1043 15.4567 90.9643 15.158C90.8243 14.8593 90.7543 14.5 90.7543 14.08C90.7543 13.6787 90.8337 13.3333 90.9923 13.044C91.1603 12.7547 91.3843 12.5213 91.6643 12.344C91.9443 12.1667 92.271 12.036 92.6443 11.952C93.0177 11.868 93.4097 11.826 93.8203 11.826C93.951 11.826 94.0863 11.8353 94.2263 11.854C94.3663 11.8633 94.497 11.882 94.6183 11.91C94.749 11.9287 94.861 11.9473 94.9543 11.966C95.0477 11.9847 95.113 11.9987 95.1503 12.008V11.644C95.1503 11.4293 95.127 11.2193 95.0803 11.014C95.0337 10.7993 94.9497 10.6127 94.8283 10.454C94.707 10.286 94.539 10.1553 94.3243 10.062C94.119 9.95933 93.8483 9.908 93.5123 9.908C93.083 9.908 92.705 9.94067 92.3783 10.006C92.061 10.062 91.823 10.1227 91.6643 10.188L91.5103 9.11C91.6783 9.03533 91.9583 8.96533 92.3503 8.9C92.7423 8.82533 93.167 8.788 93.6243 8.788ZM104.487 12.288C104.776 12.4933 105.089 12.7547 105.425 13.072C105.761 13.38 106.088 13.716 106.405 14.08C106.732 14.444 107.035 14.8173 107.315 15.2C107.595 15.5733 107.833 15.9233 108.029 16.25H106.489C106.284 15.9327 106.041 15.6107 105.761 15.284C105.49 14.948 105.206 14.626 104.907 14.318C104.608 14.01 104.305 13.7253 103.997 13.464C103.689 13.2027 103.4 12.9833 103.129 12.806V16.25H101.827V8.97H103.129V12.092C103.353 11.8773 103.61 11.63 103.899 11.35C104.188 11.0607 104.478 10.7713 104.767 10.482C105.066 10.1833 105.341 9.90333 105.593 9.642C105.845 9.37133 106.05 9.14733 106.209 8.97H107.721C107.516 9.194 107.273 9.45067 106.993 9.74C106.722 10.02 106.438 10.3093 106.139 10.608C105.85 10.9067 105.56 11.2053 105.271 11.504C104.982 11.7933 104.72 12.0547 104.487 12.288ZM111.811 15.312C112.119 15.312 112.389 15.3073 112.623 15.298C112.865 15.2793 113.066 15.2513 113.225 15.214V13.044C113.131 12.9973 112.977 12.96 112.763 12.932C112.557 12.8947 112.305 12.876 112.007 12.876C111.811 12.876 111.601 12.89 111.377 12.918C111.162 12.946 110.961 13.0067 110.775 13.1C110.597 13.184 110.448 13.3053 110.327 13.464C110.205 13.6133 110.145 13.814 110.145 14.066C110.145 14.5327 110.294 14.8593 110.593 15.046C110.891 15.2233 111.297 15.312 111.811 15.312ZM111.699 8.788C112.221 8.788 112.66 8.858 113.015 8.998C113.379 9.12867 113.668 9.32 113.883 9.572C114.107 9.81467 114.265 10.1087 114.359 10.454C114.452 10.79 114.499 11.1633 114.499 11.574V16.124C114.387 16.1427 114.228 16.1707 114.023 16.208C113.827 16.236 113.603 16.264 113.351 16.292C113.099 16.32 112.823 16.3433 112.525 16.362C112.235 16.39 111.946 16.404 111.657 16.404C111.246 16.404 110.868 16.362 110.523 16.278C110.177 16.194 109.879 16.0633 109.627 15.886C109.375 15.6993 109.179 15.4567 109.039 15.158C108.899 14.8593 108.829 14.5 108.829 14.08C108.829 13.6787 108.908 13.3333 109.067 13.044C109.235 12.7547 109.459 12.5213 109.739 12.344C110.019 12.1667 110.345 12.036 110.719 11.952C111.092 11.868 111.484 11.826 111.895 11.826C112.025 11.826 112.161 11.8353 112.301 11.854C112.441 11.8633 112.571 11.882 112.693 11.91C112.823 11.9287 112.935 11.9473 113.029 11.966C113.122 11.9847 113.187 11.9987 113.225 12.008V11.644C113.225 11.4293 113.201 11.2193 113.155 11.014C113.108 10.7993 113.024 10.6127 112.903 10.454C112.781 10.286 112.613 10.1553 112.399 10.062C112.193 9.95933 111.923 9.908 111.587 9.908C111.157 9.908 110.779 9.94067 110.453 10.006C110.135 10.062 109.897 10.1227 109.739 10.188L109.585 9.11C109.753 9.03533 110.033 8.96533 110.425 8.9C110.817 8.82533 111.241 8.788 111.699 8.788ZM121.715 12.624C121.715 11.7747 121.505 11.1213 121.085 10.664C120.665 10.2067 120.105 9.978 119.405 9.978C119.013 9.978 118.705 9.992 118.481 10.02C118.266 10.048 118.094 10.0807 117.963 10.118V14.71C118.122 14.8407 118.35 14.9667 118.649 15.088C118.948 15.2093 119.274 15.27 119.629 15.27C120.002 15.27 120.32 15.2047 120.581 15.074C120.852 14.934 121.071 14.7473 121.239 14.514C121.407 14.2713 121.528 13.9913 121.603 13.674C121.678 13.3473 121.715 12.9973 121.715 12.624ZM123.073 12.624C123.073 13.1747 122.998 13.6833 122.849 14.15C122.709 14.6167 122.499 15.018 122.219 15.354C121.939 15.69 121.594 15.9513 121.183 16.138C120.782 16.3247 120.32 16.418 119.797 16.418C119.377 16.418 119.004 16.362 118.677 16.25C118.36 16.138 118.122 16.0307 117.963 15.928V18.84H116.661V9.194C116.969 9.11933 117.352 9.04 117.809 8.956C118.276 8.86267 118.812 8.816 119.419 8.816C119.979 8.816 120.483 8.90467 120.931 9.082C121.379 9.25933 121.762 9.51133 122.079 9.838C122.396 10.1647 122.639 10.566 122.807 11.042C122.984 11.5087 123.073 12.036 123.073 12.624ZM130.043 8.97V10.062H127.677V16.25H126.375V10.062H124.009V8.97H130.043ZM137.812 12.61C137.812 13.1887 137.728 13.7113 137.56 14.178C137.392 14.6447 137.154 15.046 136.846 15.382C136.547 15.718 136.188 15.9793 135.768 16.166C135.348 16.3433 134.89 16.432 134.396 16.432C133.901 16.432 133.444 16.3433 133.024 16.166C132.604 15.9793 132.24 15.718 131.932 15.382C131.633 15.046 131.4 14.6447 131.232 14.178C131.064 13.7113 130.98 13.1887 130.98 12.61C130.98 12.0407 131.064 11.5227 131.232 11.056C131.4 10.58 131.633 10.174 131.932 9.838C132.24 9.502 132.604 9.24533 133.024 9.068C133.444 8.88133 133.901 8.788 134.396 8.788C134.89 8.788 135.348 8.88133 135.768 9.068C136.188 9.24533 136.547 9.502 136.846 9.838C137.154 10.174 137.392 10.58 137.56 11.056C137.728 11.5227 137.812 12.0407 137.812 12.61ZM136.454 12.61C136.454 11.7887 136.267 11.14 135.894 10.664C135.53 10.1787 135.03 9.936 134.396 9.936C133.761 9.936 133.257 10.1787 132.884 10.664C132.52 11.14 132.338 11.7887 132.338 12.61C132.338 13.4313 132.52 14.0847 132.884 14.57C133.257 15.046 133.761 15.284 134.396 15.284C135.03 15.284 135.53 15.046 135.894 14.57C136.267 14.0847 136.454 13.4313 136.454 12.61ZM145.761 8.97V16.25H144.501V10.706C144.221 11.0607 143.913 11.476 143.577 11.952C143.241 12.428 142.905 12.9227 142.569 13.436C142.233 13.94 141.911 14.4393 141.603 14.934C141.295 15.4287 141.029 15.8673 140.805 16.25H139.643V8.97H140.903V14.206C141.146 13.8047 141.421 13.366 141.729 12.89C142.037 12.4047 142.355 11.9287 142.681 11.462C143.017 10.986 143.349 10.5333 143.675 10.104C144.011 9.66533 144.324 9.28733 144.613 8.97H145.761ZM142.709 7.794C142.121 7.794 141.641 7.64467 141.267 7.346C140.903 7.04733 140.684 6.632 140.609 6.1L141.603 5.834C141.678 6.13267 141.804 6.37533 141.981 6.562C142.159 6.74867 142.401 6.842 142.709 6.842C143.017 6.842 143.26 6.74867 143.437 6.562C143.615 6.37533 143.741 6.13267 143.815 5.834L144.795 6.1C144.721 6.632 144.501 7.04733 144.137 7.346C143.773 7.64467 143.297 7.794 142.709 7.794ZM56.238 28.97V36.25H54.978V30.706C54.698 31.0607 54.39 31.476 54.054 31.952C53.718 32.428 53.382 32.9227 53.046 33.436C52.71 33.94 52.388 34.4393 52.08 34.934C51.772 35.4287 51.506 35.8673 51.282 36.25H50.12V28.97H51.38V34.206C51.6227 33.8047 51.898 33.366 52.206 32.89C52.514 32.4047 52.8313 31.9287 53.158 31.462C53.494 30.986 53.8253 30.5333 54.152 30.104C54.488 29.6653 54.8007 29.2873 55.09 28.97H56.238ZM67.6778 36.25H66.3758V33.03H63.0158V36.25H61.7138V28.97H63.0158V31.938H66.3758V28.97H67.6778V36.25ZM72.3809 35.312C72.6889 35.312 72.9595 35.3073 73.1929 35.298C73.4355 35.2793 73.6362 35.2513 73.7949 35.214V33.044C73.7015 32.9973 73.5475 32.96 73.3329 32.932C73.1275 32.8947 72.8755 32.876 72.5769 32.876C72.3809 32.876 72.1709 32.89 71.9469 32.918C71.7322 32.946 71.5315 33.0067 71.3449 33.1C71.1675 33.184 71.0182 33.3053 70.8969 33.464C70.7755 33.6133 70.7149 33.814 70.7149 34.066C70.7149 34.5327 70.8642 34.8593 71.1629 35.046C71.4615 35.2233 71.8675 35.312 72.3809 35.312ZM72.2689 28.788C72.7915 28.788 73.2302 28.858 73.5849 28.998C73.9489 29.1287 74.2382 29.32 74.4529 29.572C74.6769 29.8147 74.8355 30.1087 74.9289 30.454C75.0222 30.79 75.0689 31.1633 75.0689 31.574V36.124C74.9569 36.1427 74.7982 36.1707 74.5929 36.208C74.3969 36.236 74.1729 36.264 73.9209 36.292C73.6689 36.32 73.3935 36.3433 73.0949 36.362C72.8055 36.39 72.5162 36.404 72.2269 36.404C71.8162 36.404 71.4382 36.362 71.0929 36.278C70.7475 36.194 70.4489 36.0633 70.1969 35.886C69.9449 35.6993 69.7489 35.4567 69.6089 35.158C69.4689 34.8593 69.3989 34.5 69.3989 34.08C69.3989 33.6787 69.4782 33.3333 69.6369 33.044C69.8049 32.7547 70.0289 32.5213 70.3089 32.344C70.5889 32.1667 70.9155 32.036 71.2889 31.952C71.6622 31.868 72.0542 31.826 72.4649 31.826C72.5955 31.826 72.7309 31.8353 72.8709 31.854C73.0109 31.8633 73.1415 31.882 73.2629 31.91C73.3935 31.9287 73.5055 31.9473 73.5989 31.966C73.6922 31.9847 73.7575 31.9987 73.7949 32.008V31.644C73.7949 31.4293 73.7715 31.2193 73.7249 31.014C73.6782 30.7993 73.5942 30.6127 73.4729 30.454C73.3515 30.286 73.1835 30.1553 72.9689 30.062C72.7635 29.9593 72.4929 29.908 72.1569 29.908C71.7275 29.908 71.3495 29.9407 71.0229 30.006C70.7055 30.062 70.4675 30.1227 70.3089 30.188L70.1549 29.11C70.3229 29.0353 70.6029 28.9653 70.9949 28.9C71.3869 28.8253 71.8115 28.788 72.2689 28.788ZM79.7653 30.062C79.7653 30.37 79.756 30.7013 79.7373 31.056C79.728 31.4013 79.7047 31.7513 79.6673 32.106C79.63 32.4513 79.5787 32.7967 79.5133 33.142C79.448 33.478 79.364 33.7953 79.2613 34.094C79.1587 34.3927 79.028 34.6727 78.8693 34.934C78.72 35.1953 78.5333 35.4287 78.3093 35.634C78.0853 35.83 77.824 35.998 77.5253 36.138C77.2267 36.2687 76.8767 36.3527 76.4753 36.39L76.2933 35.298C76.7507 35.2047 77.11 35.032 77.3713 34.78C77.642 34.528 77.8567 34.22 78.0153 33.856C78.1553 33.5387 78.258 33.1793 78.3233 32.778C78.3887 32.3767 78.4353 31.9613 78.4633 31.532C78.4913 31.0933 78.5053 30.6547 78.5053 30.216C78.5147 29.7773 78.5193 29.362 78.5193 28.97H83.3633V36.25H82.0613V30.062H79.7653ZM91.7165 28.97V36.25H90.4565V30.706C90.1765 31.0607 89.8685 31.476 89.5325 31.952C89.1965 32.428 88.8605 32.9227 88.5245 33.436C88.1885 33.94 87.8665 34.4393 87.5585 34.934C87.2505 35.4287 86.9845 35.8673 86.7605 36.25H85.5985V28.97H86.8585V34.206C87.1012 33.8047 87.3765 33.366 87.6845 32.89C87.9925 32.4047 88.3098 31.9287 88.6365 31.462C88.9725 30.986 89.3038 30.5333 89.6305 30.104C89.9665 29.6653 90.2792 29.2873 90.5685 28.97H91.7165ZM94.778 28.97V31.112C94.778 31.6627 94.918 32.05 95.198 32.274C95.478 32.4887 95.8607 32.596 96.346 32.596C96.7007 32.596 96.9947 32.5773 97.228 32.54C97.4707 32.5027 97.6854 32.4607 97.872 32.414V28.97H99.174V36.25H97.872V33.422C97.7974 33.4407 97.6994 33.464 97.578 33.492C97.4567 33.52 97.3167 33.548 97.158 33.576C97.0087 33.5947 96.85 33.6133 96.682 33.632C96.514 33.6507 96.3507 33.66 96.192 33.66C95.7907 33.66 95.422 33.618 95.086 33.534C94.7594 33.45 94.4747 33.31 94.232 33.114C93.9987 32.918 93.812 32.6613 93.672 32.344C93.5414 32.0173 93.476 31.6113 93.476 31.126V28.97H94.778ZM107.381 36.25H106.079V33.03H102.719V36.25H101.417V28.97H102.719V31.938H106.079V28.97H107.381V36.25ZM112.294 32.652C112.042 32.652 111.795 32.6613 111.552 32.68C111.319 32.6893 111.109 32.7173 110.922 32.764V35.27C110.978 35.2793 111.057 35.2887 111.16 35.298C111.272 35.3073 111.389 35.3167 111.51 35.326C111.641 35.326 111.771 35.3307 111.902 35.34C112.033 35.34 112.149 35.34 112.252 35.34C112.821 35.34 113.26 35.2327 113.568 35.018C113.876 34.8033 114.03 34.458 114.03 33.982C114.03 33.7487 113.979 33.548 113.876 33.38C113.783 33.212 113.652 33.0767 113.484 32.974C113.325 32.862 113.143 32.7827 112.938 32.736C112.733 32.68 112.518 32.652 112.294 32.652ZM109.62 28.97H110.922V31.756C111.081 31.7187 111.309 31.6813 111.608 31.644C111.916 31.6067 112.21 31.588 112.49 31.588C112.873 31.588 113.237 31.6347 113.582 31.728C113.927 31.812 114.231 31.952 114.492 32.148C114.753 32.3347 114.959 32.582 115.108 32.89C115.267 33.1887 115.346 33.548 115.346 33.968C115.346 34.4067 115.271 34.78 115.122 35.088C114.973 35.396 114.763 35.648 114.492 35.844C114.221 36.04 113.895 36.18 113.512 36.264C113.129 36.3573 112.709 36.404 112.252 36.404C111.813 36.404 111.37 36.376 110.922 36.32C110.474 36.2733 110.04 36.1987 109.62 36.096V28.97ZM117.992 36.25H116.69V28.97H117.992V36.25ZM121.615 30.888C121.522 31.812 121.452 32.736 121.405 33.66C121.359 34.5747 121.321 35.438 121.293 36.25H120.047C120.066 35.6807 120.094 35.088 120.131 34.472C120.169 33.8467 120.211 33.2213 120.257 32.596C120.304 31.9613 120.355 31.3407 120.411 30.734C120.467 30.118 120.528 29.53 120.593 28.97H121.783C122.082 29.4553 122.432 30.1227 122.833 30.972C123.235 31.812 123.697 32.7827 124.219 33.884C124.742 32.7827 125.204 31.812 125.605 30.972C126.007 30.1227 126.357 29.4553 126.655 28.97H127.859C127.925 29.53 127.985 30.118 128.041 30.734C128.097 31.3407 128.149 31.9613 128.195 32.596C128.242 33.2213 128.284 33.8467 128.321 34.472C128.359 35.088 128.387 35.6807 128.405 36.25H127.117C127.089 35.438 127.052 34.5747 127.005 33.66C126.959 32.736 126.889 31.812 126.795 30.888C126.646 31.1773 126.473 31.5273 126.277 31.938C126.081 32.3393 125.885 32.75 125.689 33.17C125.503 33.59 125.325 33.9913 125.157 34.374C124.989 34.7567 124.859 35.06 124.765 35.284H123.673C123.571 35.0507 123.431 34.7427 123.253 34.36C123.085 33.9773 122.903 33.576 122.707 33.156C122.521 32.7267 122.329 32.3113 122.133 31.91C121.937 31.4993 121.765 31.1587 121.615 30.888ZM136.588 28.97V36.25H135.328V30.706C135.048 31.0607 134.74 31.476 134.404 31.952C134.068 32.428 133.732 32.9227 133.396 33.436C133.06 33.94 132.738 34.4393 132.43 34.934C132.122 35.4287 131.856 35.8673 131.632 36.25H130.47V28.97H131.73V34.206C131.972 33.8047 132.248 33.366 132.556 32.89C132.864 32.4047 133.181 31.9287 133.508 31.462C133.844 30.986 134.175 30.5333 134.502 30.104C134.838 29.6653 135.15 29.2873 135.44 28.97H136.588Z" fill="black"/>
<path d="M26.5 11.5H5.5C4.30693 11.5013 3.16311 11.9759 2.31948 12.8195C1.47585 13.6631 1.00132 14.8069 1 16V26.5C1.00132 27.6931 1.47585 28.8369 2.31948 29.6805C3.16311 30.5241 4.30693 30.9987 5.5 31H26.5C27.6931 30.9987 28.8369 30.5241 29.6805 29.6805C30.5241 28.8369 30.9987 27.6931 31 26.5V16C30.9987 14.8069 30.5241 13.6631 29.6805 12.8195C28.8369 11.9759 27.6931 11.5013 26.5 11.5ZM30 26.5C29.9989 27.4279 29.6299 28.3176 28.9737 28.9737C28.3176 29.6299 27.4279 29.9989 26.5 30H5.5C4.57207 29.9989 3.68244 29.6299 3.0263 28.9737C2.37015 28.3176 2.00106 27.4279 2 26.5V16C2.00106 15.0721 2.37015 14.1824 3.0263 13.5263C3.68244 12.8701 4.57207 12.5011 5.5 12.5H26.5C27.4279 12.5011 28.3176 12.8701 28.9737 13.5263C29.6299 14.1824 29.9989 15.0721 30 16V26.5Z" fill="black"/>
<path d="M27 24.5H24C23.6022 24.5 23.2206 24.658 22.9393 24.9393C22.658 25.2206 22.5 25.6022 22.5 26V27C22.5 27.3978 22.658 27.7794 22.9393 28.0607C23.2206 28.342 23.6022 28.5 24 28.5H27C27.3978 28.5 27.7794 28.342 28.0607 28.0607C28.342 27.7794 28.5 27.3978 28.5 27V26C28.5 25.6022 28.342 25.2206 28.0607 24.9393C27.7794 24.658 27.3978 24.5 27 24.5ZM27.5 27C27.5 27.1326 27.4473 27.2598 27.3536 27.3536C27.2598 27.4473 27.1326 27.5 27 27.5H24C23.8674 27.5 23.7402 27.4473 23.6464 27.3536C23.5527 27.2598 23.5 27.1326 23.5 27V26C23.5 25.8674 23.5527 25.7402 23.6464 25.6464C23.7402 25.5527 23.8674 25.5 24 25.5H27C27.1326 25.5 27.2598 25.5527 27.3536 25.6464C27.4473 25.7402 27.5 25.8674 27.5 26V27Z" fill="black"/>
<path d="M8.5 23C8.5 22.8674 8.44732 22.7402 8.35355 22.6464C8.25979 22.5527 8.13261 22.5 8 22.5H4.5C4.36739 22.5 4.24021 22.5527 4.14645 22.6464C4.05268 22.7402 4 22.8674 4 23C4 23.1326 4.05268 23.2598 4.14645 23.3536C4.24021 23.4473 4.36739 23.5 4.5 23.5H8C8.13261 23.5 8.25979 23.4473 8.35355 23.3536C8.44732 23.2598 8.5 23.1326 8.5 23Z" fill="black"/>
<path d="M14 23C14 22.8674 13.9473 22.7402 13.8536 22.6464C13.7598 22.5527 13.6326 22.5 13.5 22.5H10C9.86739 22.5 9.74021 22.5527 9.64645 22.6464C9.55268 22.7402 9.5 22.8674 9.5 23C9.5 23.1326 9.55268 23.2598 9.64645 23.3536C9.74021 23.4473 9.86739 23.5 10 23.5H13.5C13.6326 23.5 13.7598 23.4473 13.8536 23.3536C13.9473 23.2598 14 23.1326 14 23Z" fill="black"/>
<path d="M19 22.5H15.5C15.3674 22.5 15.2402 22.5527 15.1464 22.6464C15.0527 22.7402 15 22.8674 15 23C15 23.1326 15.0527 23.2598 15.1464 23.3536C15.2402 23.4473 15.3674 23.5 15.5 23.5H19C19.1326 23.5 19.2598 23.4473 19.3536 23.3536C19.4473 23.2598 19.5 23.1326 19.5 23C19.5 22.8674 19.4473 22.7402 19.3536 22.6464C19.2598 22.5527 19.1326 22.5 19 22.5Z" fill="black"/>
<path d="M25 23C25 22.8674 24.9473 22.7402 24.8536 22.6464C24.7598 22.5527 24.6326 22.5 24.5 22.5H21C20.8674 22.5 20.7402 22.5527 20.6464 22.6464C20.5527 22.7402 20.5 22.8674 20.5 23C20.5 23.1326 20.5527 23.2598 20.6464 23.3536C20.7402 23.4473 20.8674 23.5 21 23.5H24.5C24.6326 23.5 24.7598 23.4473 24.8536 23.3536C24.9473 23.2598 25 23.1326 25 23Z" fill="black"/>
<path d="M9.5 27H6C5.86739 27 5.74021 27.0527 5.64645 27.1464C5.55268 27.2402 5.5 27.3674 5.5 27.5C5.5 27.6326 5.55268 27.7598 5.64645 27.8536C5.74021 27.9473 5.86739 28 6 28H9.5C9.63261 28 9.75979 27.9473 9.85355 27.8536C9.94732 27.7598 10 27.6326 10 27.5C10 27.3674 9.94732 27.2402 9.85355 27.1464C9.75979 27.0527 9.63261 27 9.5 27Z" fill="black"/>
<path d="M16 27H12.5C12.3674 27 12.2402 27.0527 12.1464 27.1464C12.0527 27.2402 12 27.3674 12 27.5C12 27.6326 12.0527 27.7598 12.1464 27.8536C12.2402 27.9473 12.3674 28 12.5 28H16C16.1326 28 16.2598 27.9473 16.3536 27.8536C16.4473 27.7598 16.5 27.6326 16.5 27.5C16.5 27.3674 16.4473 27.2402 16.3536 27.1464C16.2598 27.0527 16.1326 27 16 27Z" fill="black"/>
<path d="M5 18.5H8C8.26522 18.5 8.51957 18.3946 8.70711 18.2071C8.89464 18.0196 9 17.7652 9 17.5V15.5C9 15.2348 8.89464 14.9804 8.70711 14.7929C8.51957 14.6054 8.26522 14.5 8 14.5H5C4.73478 14.5 4.48043 14.6054 4.29289 14.7929C4.10536 14.9804 4 15.2348 4 15.5V17.5C4 17.7652 4.10536 18.0196 4.29289 18.2071C4.48043 18.3946 4.73478 18.5 5 18.5ZM7 17.5V17H8V17.5H7ZM8 16H7V15.5H8V16ZM5 15.5H6V17.5H5V15.5Z" fill="black"/>
<path d="M25.0251 15.9394C25.1644 15.8001 25.3297 15.6896 25.5118 15.6142C25.6938 15.5388 25.8888 15.5 26.0858 15.5C26.2828 15.5 26.4779 15.5388 26.6599 15.6142C26.8419 15.6896 27.0073 15.8001 27.1466 15.9394C27.2409 16.0305 27.3672 16.0809 27.4983 16.0798C27.6294 16.0786 27.7548 16.0261 27.8475 15.9333C27.9402 15.8406 27.9928 15.7152 27.9939 15.5841C27.9951 15.453 27.9447 15.3267 27.8536 15.2324C27.3844 14.7643 26.7486 14.5015 26.0858 14.5015C25.423 14.5015 24.7873 14.7643 24.3181 15.2324C24.227 15.3267 24.1766 15.453 24.1778 15.5841C24.1789 15.7152 24.2315 15.8406 24.3242 15.9333C24.4169 16.0261 24.5423 16.0786 24.6734 16.0798C24.8045 16.0809 24.9308 16.0305 25.0251 15.9394Z" fill="black"/>
<path d="M25.0251 16.6467C24.934 16.741 24.8836 16.8673 24.8848 16.9984C24.8859 17.1295 24.9385 17.2549 25.0312 17.3476C25.1239 17.4403 25.2493 17.4929 25.3804 17.494C25.5115 17.4952 25.6378 17.4448 25.7321 17.3537C25.7786 17.3072 25.8337 17.2703 25.8944 17.2452C25.9551 17.22 26.0202 17.2071 26.0859 17.2071C26.1516 17.2071 26.2166 17.22 26.2773 17.2452C26.338 17.2703 26.3932 17.3072 26.4396 17.3537C26.5339 17.4448 26.6602 17.4952 26.7913 17.494C26.9224 17.4929 27.0478 17.4403 27.1405 17.3476C27.2332 17.2549 27.2858 17.1295 27.287 16.9984C27.2881 16.8673 27.2377 16.741 27.1466 16.6467C27.0073 16.5074 26.842 16.3969 26.66 16.3215C26.4779 16.2461 26.2829 16.2073 26.0859 16.2073C25.8889 16.2073 25.6938 16.2461 25.5118 16.3215C25.3298 16.3969 25.1644 16.5074 25.0251 16.6467Z" fill="black"/>
<path d="M11 15H17.5C17.6326 15 17.7598 14.9473 17.8536 14.8536C17.9473 14.7598 18 14.6326 18 14.5C18 14.3674 17.9473 14.2402 17.8536 14.1464C17.7598 14.0527 17.6326 14 17.5 14H11C10.8674 14 10.7402 14.0527 10.6464 14.1464C10.5527 14.2402 10.5 14.3674 10.5 14.5C10.5 14.6326 10.5527 14.7598 10.6464 14.8536C10.7402 14.9473 10.8674 15 11 15Z" fill="black"/>
<path d="M21.5 14.5C21.5 14.3674 21.4473 14.2402 21.3536 14.1464C21.2598 14.0527 21.1326 14 21 14H19.5C19.3674 14 19.2402 14.0527 19.1464 14.1464C19.0527 14.2402 19 14.3674 19 14.5C19 14.6326 19.0527 14.7598 19.1464 14.8536C19.2402 14.9473 19.3674 15 19.5 15H21C21.1326 15 21.2598 14.9473 21.3536 14.8536C21.4473 14.7598 21.5 14.6326 21.5 14.5Z" fill="black"/>
</svg>
